{
	"asset":{
		"generator":"Khronos glTF Blender I/O v4.1.63",
		"version":"2.0"
	},
	"scene":0,
	"scenes":[
		{
			"name":"Scene",
			"nodes":[
				0
			]
		}
	],
	"nodes":[
		{
			"mesh":0,
			"name":"\u7acb\u65b9\u4f53.028",
			"scale":[
				0.06399998813867569,
				0.06399998813867569,
				0.019199997186660767
			],
			"translation":[
				-2.0950539112091064,
				0.1494053602218628,
				-5.781771659851074
			]
		}
	],
	"animations":[
		{
			"channels":[
				{
					"sampler":0,
					"target":{
						"node":0,
						"path":"translation"
					}
				}
			],
			"name":"\u7acb\u65b9\u4f53.028Action",
			"samplers":[
				{
					"input":4,
					"interpolation":"LINEAR",
					"output":5
				}
			]
		}
	],
	"materials":[
		{
			"doubleSided":true,
			"name":"\u900f\u660e\u73bb\u7483",
			"pbrMetallicRoughness":{}
		}
	],
	"meshes":[
		{
			"name":"\u7acb\u65b9\u4f53.028",
			"primitives":[
				{
					"attributes":{
						"POSITION":0,
						"NORMAL":1,
						"TEXCOORD_0":2
					},
					"indices":3,
					"material":0
				}
			]
		}
	],
	"accessors":[
		{
			"bufferView":0,
			"componentType":5126,
			"count":24,
			"max":[
				1,
				1,
				1
			],
			"min":[
				-1,
				-1,
				-1
			],
			"type":"VEC3"
		},
		{
			"bufferView":1,
			"componentType":5126,
			"count":24,
			"type":"VEC3"
		},
		{
			"bufferView":2,
			"componentType":5126,
			"count":24,
			"type":"VEC2"
		},
		{
			"bufferView":3,
			"componentType":5123,
			"count":36,
			"type":"SCALAR"
		},
		{
			"bufferView":4,
			"componentType":5126,
			"count":7,
			"max":[
				0.5
			],
			"min":[
				0.25
			],
			"type":"SCALAR"
		},
		{
			"bufferView":5,
			"componentType":5126,
			"count":7,
			"type":"VEC3"
		}
	],
	"bufferViews":[
		{
			"buffer":0,
			"byteLength":288,
			"byteOffset":0,
			"target":34962
		},
		{
			"buffer":0,
			"byteLength":288,
			"byteOffset":288,
			"target":34962
		},
		{
			"buffer":0,
			"byteLength":192,
			"byteOffset":576,
			"target":34962
		},
		{
			"buffer":0,
			"byteLength":72,
			"byteOffset":768,
			"target":34963
		},
		{
			"buffer":0,
			"byteLength":28,
			"byteOffset":840
		},
		{
			"buffer":0,
			"byteLength":84,
			"byteOffset":868
		}
	],
	"buffers":[
		{
			"byteLength":952,
			"uri":"无标题.bin"
		}
	]
}
